# xmcd
#
# Track frame offsets: 
#        150
#        12760
#        24812
#        39952
#        49090
#        62715
#        76125
#        86082
#        95050
#        108307
#        118957
#        130482
#        140265
#        148640
#        162342
#
# Disc length: 2354 seconds
#
# Revision: 0
# Processed by: cddbd v1.5.2PL0 Copyright (c) Steve Scherf et al.
# Submitted via: ExactAudioCopy v0.95a5
#
DISCID=c309300f
DTITLE=Gemischt - COUNTRY Golden Hits
DYEAR=1900
DGENRE=Country
TTITLE0=Track01   Folsom prison blues- Johnny Cash
TTITLE1=Track02   Born to lose - Jerry Lee Lewis
TTITLE2=Track03   Blanket on the ground - Billie Jo Spears
TTITLE3=Track04   Rawhide 2'00 - Frankie Laine
TTITLE4=Track05   Vaya con dios - Roy Drusky
TTITLE5=Track06   The ballad of Billy Joe - Jerry Lee Lewis
TTITLE6=Track07   Uncertain love - Slim Rhodes
TTITLE7=Track08   Muddy ole river - Dane Stinit
TTITLE8=Track09   Rose garden - Lynn Anderson
TTITLE9=Track10   Walk on by - Leroy Van Dyke
TTITLE10=Track11   Before the next teartrop falls - Jeannie C. Riley
TTITLE11=Track12   Please help me I'm falling- Hank Locklin
TTITLE12=Track13   Country Boy - Johnny Cash
TTITLE13=Track14   Tennessee - Carl Perkins
TTITLE14=Track15   It's a good Year for the Roses - George Jones
EXTD=
EXTT0=Folsom prison blues - Johnny Cash
EXTT1=
EXTT2=
EXTT3=
EXTT4=
EXTT5=
EXTT6=
EXTT7=
EXTT8=
EXTT9=
EXTT10=
EXTT11=
EXTT12=
EXTT13=
EXTT14=
PLAYORDER=
